<svg xmlns="http://www.w3.org/2000/svg" xmlns:xlink="http://www.w3.org/1999/xlink" version="1.1" id="Layer_1" x="0px" y="0px" width="100px" height="100px" viewBox="5.0 -10.0 100.0 135.0" enable-background="new 0 0 100 100" xml:space="preserve">
<g id="Captions" display="none">
</g>
<path d="M90.223,36.674H33.499c-4.457,0-8.104,3.646-8.104,8.104v3.286v12.109V77.19c0,4.457,3.647,8.104,8.104,8.104h56.724  c4.457,0,8.104-3.647,8.104-8.104V60.173V48.064v-3.286C98.327,40.321,94.68,36.674,90.223,36.674z M93.464,77.19  c0,1.758-1.483,3.242-3.241,3.242H33.499c-1.758,0-3.241-1.484-3.241-3.242V60.173h63.207V77.19z M30.257,48.064v-3.286  c0-1.757,1.483-3.241,3.241-3.241h56.724c1.758,0,3.241,1.484,3.241,3.241v3.286H30.257z"/>
<polygon points="48.895,31.812 73.205,31.812 73.205,24.312 85.36,24.312 61.05,0 36.74,24.312 48.895,24.312 "/>
<path d="M54.843,98.92c3.86,2.229,8.842,0.895,11.07-2.966l3.347-5.798H39.663L54.843,98.92z"/>
<path d="M33.499,31.812h2.351l-5.82-3.361c-3.86-2.228-8.841-0.894-11.069,2.966L2.752,59.488c-2.229,3.86-0.894,8.841,2.966,11.069  l14.989,8.654c-0.105-0.659-0.175-1.331-0.175-2.021V44.778C20.533,37.629,26.349,31.812,33.499,31.812z"/>
<text x="0.0" y="117.5" font-size="5.0" font-weight="bold" font-family="Helvetica Neue, Helvetica, Arial-Unicode, Arial, Sans-serif" fill="#000000">Created by Lemon Liu</text><text x="0.0" y="122.5" font-size="5.0" font-weight="bold" font-family="Helvetica Neue, Helvetica, Arial-Unicode, Arial, Sans-serif" fill="#000000">from the Noun Project</text></svg>