<svg xmlns="http://www.w3.org/2000/svg" xmlns:xlink="http://www.w3.org/1999/xlink" version="1.1" id="Livello_1" x="0px" y="0px" width="100px" height="100px" viewBox="5.0 -10.0 100.0 135.0" enable-background="new 0 0 100 100" xml:space="preserve">
<path fill="#000000" d="M84.321,14.199c-3.001,0-6.616-2.958-6.616-2.958l0.002,0.005c-2.532-2.195-5.828-3.526-9.439-3.526  c-4.595,0-8.688,2.156-11.328,5.511l0.005-0.015c0,0-2-0.183-3.764-0.477c-1.76-0.293-5.25-0.196-6.492,0  c-1.239,0.196-3.879,0.31-3.879,0.31h-0.002c-2.645-3.251-6.677-5.33-11.186-5.33c-6.439,0-6.909,1.333-9.439,3.526v-0.005  c0,0-3.613,2.958-6.614,2.958h-1.481v4.962c0,0,3.118-0.506,3.148,1.747c-0.013,0.162-0.027,0.325-0.035,0.489  c0,0.006,0,0.012-0.002,0.019l0,0c-0.015,0.261-0.022,0.524-0.022,0.788c0,8.001,6.466,14.485,14.442,14.485  c7.978,0,14.444-6.484,14.444-14.485c0-0.771-0.06-1.527-0.178-2.265l0,0c0-0.007,0-0.013-0.005-0.019  c-0.045-0.297-0.105-0.592-0.168-0.882c-0.37-2.955,1.955-2.79,1.955-2.79h5.058c1.506,0.01,1.642,1.406,1.523,2.479  c-0.098,0.396-0.178,0.798-0.242,1.205c0,0.003-0.003,0.009-0.003,0.009l0.003-0.005c-0.118,0.74-0.178,1.497-0.178,2.27  c0,8,6.466,14.485,14.439,14.485c7.978,0,14.444-6.484,14.444-14.485c0-0.266-0.011-0.527-0.022-0.789l0,0c0-0.007,0-0.012,0-0.018  c-0.011-0.165-0.025-0.329-0.04-0.49c0.034-2.253,3.15-1.748,3.15-1.748v-4.959h-1.477V14.199z M31.664,34.892  c-6.664,0-12.069-5.403-12.069-12.071c0-6.666,5.405-12.071,12.069-12.071c6.667,0,12.072,5.405,12.072,12.071  S38.331,34.892,31.664,34.892z M68.221,34.892c-6.664,0-12.07-5.403-12.07-12.071c0-6.666,5.406-12.071,12.07-12.071  c6.669,0,12.071,5.405,12.071,12.071S74.89,34.892,68.221,34.892z"/>
<path fill="#000000" d="M89.129,30.811c0.921,5.332-0.323,10.025-0.516,14.347c-0.073,1.527,0.268,3.169,0,4.668  c-0.091,0.494-0.438,0.821-0.693,1.383c-0.218,0.477-0.312,1.111-0.519,1.555c-0.232,0.5-0.495,0.913-0.692,1.383  c-0.394,0.954-0.563,2.013-0.864,3.285c-0.122,0.512-0.4,1.037-0.521,1.555c-0.27,1.191-0.322,2.371-0.692,3.283  c-0.181,0.448-0.411,0.791-0.688,1.21c-0.563,0.845-1.549,2.126-2.25,3.112c-0.338,0.476-0.868,0.894-1.036,1.383  c-0.138,0.406-0.107,1.119-0.172,1.555c-0.086,0.592-0.105,1.106-0.173,1.557c-0.153,0.976-0.178,2.049-0.521,2.938  c-0.193,0.511-0.591,0.841-1.036,1.385c-0.854,1.035-1.81,2.138-2.766,3.284c-0.796,0.949-1.634,2.829-2.25,4.146  c-0.57,1.224-1.07,2.379-1.554,3.631c-0.938,0.656-2.032,1.517-3.11,2.421c-0.383,0.318-0.673,0.443-1.211,0.865  c-0.245,0.191-0.351,0.448-0.519,0.517c-0.305,0.128-0.894,0.075-1.381,0.174c-1.837,0.372-4.239,0.922-6.399,1.383  c-0.881,0.187-1.847,0.503-2.59,0.518c-1.531,0.033-3.091-0.553-4.494-0.69c-0.903,0.423-1.794,0.858-2.768,1.21  c-0.641-0.457-1.354-0.837-2.074-1.21c-1.614,0.13-3.226,0.863-5.013,0.863c-1.531,0-3.351-0.655-5.188-1.036  c-1.879-0.39-3.919-0.507-5.185-1.037c-0.741-0.312-1.224-0.886-1.902-1.383c-0.233-0.173-0.516-0.21-0.691-0.345  c-0.2-0.158-0.315-0.532-0.518-0.692c-0.23-0.182-0.48-0.179-0.693-0.345c-0.391-0.309-0.704-0.79-1.209-0.865  c-0.453-1.273-0.996-2.438-1.557-3.631c-0.543-1.159-1.066-2.409-1.727-3.456c-1.208-1.907-3.121-3.423-4.497-5.357  c-0.065-1.446-0.475-3.095-0.69-4.497c-0.075-0.496-0.025-1.114-0.173-1.556c-0.125-0.375-0.255-0.312-0.521-0.691  c-0.167-0.245-0.17-0.623-0.343-0.863c-0.095-0.133-0.24-0.187-0.348-0.347c-0.105-0.163-0.326-0.404-0.516-0.692  c-0.11-0.162-0.331-0.404-0.518-0.69c-0.133-0.194-0.443-0.698-0.693-1.039c-0.628-0.85-0.868-0.881-1.208-2.247  c-0.32-1.276-0.843-3.297-1.211-4.84c-0.147-0.625-0.15-1.313-0.345-1.901c-0.348-1.044-1.176-2.304-1.731-3.457  c-0.516-1.086-0.606-2.648-0.688-4.495c-0.05-1.054,0.055-2.092,0-3.112c-0.107-1.96-0.561-3.957-0.693-6.05  c-0.133-2.185,0.132-4.326,0.172-6.742c1.341,3.081,2.27,6.431,3.458,9.854c0.15,0.43,0.338,0.999,0.521,1.382  c0.581,1.24,1.632,2.244,2.42,3.284c0.816,1.084,1.474,2.241,2.417,3.11c1.003,0.149,2.015,0.293,3.11,0.346  c-0.047,1.549,0.306,2.69,0.173,4.322c0.718,0.726,1.882,1,2.94,1.381c0.656,2.516,1.611,4.728,2.245,7.26  c1.699-0.665,3.486-1.239,5.015-2.071c1.299,2.502,2.39,5.215,3.631,7.776c1.199-0.529,2.673-0.782,3.804-1.382  c0.903,0.421,1.394,1.255,2.248,1.729c1.747-1.734,3.566-3.282,5.875-5.013c0.13-0.099,0.605-0.358,1.039-0.692  c1.091-0.847,0.736-1.055,2.248,0c0.21,0.145,0.34,0.399,0.518,0.519c0.809,0.541,1.526,1.13,2.42,1.728  c1.254,0.839,2.445,2.146,3.456,3.283c0.98-0.345,1.304-1.346,2.25-1.727c1.318,0.349,2.479,0.859,3.804,1.209  c1.313-2.373,2.395-4.98,3.456-7.605c1.773,0.53,3.175,1.432,5.015,1.9c0.991-2.176,1.512-4.825,2.42-7.085  c0.891-0.436,1.872-0.776,2.765-1.212c0.006-1.549,0.291-2.821,0.173-4.494c1.001-0.149,2.013-0.292,3.111-0.345  c0.601-0.345,0.815-1.023,1.211-1.556c0.628-0.851,1.371-1.674,2.074-2.592c0.103-0.135,0.058-0.369,0.173-0.519  c0.36-0.487,0.943-0.871,1.209-1.383c0.225-0.435,0.312-0.99,0.518-1.555C86.799,37.926,87.997,34.186,89.129,30.811z"/>
<path fill="#000000" d="M50.062,42.956c1.454-0.625,2.43-1.688,3.974-1.901c1.106-0.152,2.468,0.123,3.631,0.346  c2.641,0.502,4.657,0.898,6.742,2.212c0.237,0.149,0.813,0.655,0.865,0.691c1.009,0.704,2.431,2.059,3.286,3.111  c0.147,0.182,0.243,0.267,0.41,0.476c0.108,0.137,0.363,0.421,0.453,0.561c0.298,0.47,0.73,1.548,1.036,2.248  c0.396,0.909,1.059,2.614,1.211,3.976c0.275,2.469-0.455,4.975-0.173,7.78c-1.206-0.455-2.142-0.735-3.11-1.558  c-1.646-1.391-0.655-5.185-2.422-6.74c-0.261-0.23-0.396-0.371-0.773-0.617c-0.067-0.043-0.018-1.312-0.075-1.338  c-0.353-0.16-1.762-2.218-2.263-2.318c-1.538-0.305-3.655,0.157-5.53,0.345c-1.821,0.184-3.826,0.669-5.36,0.346  c-0.913-0.192-1.374-0.811-2.074-1.384c-1.184,1.839-4.625,1.16-7.432,0.865c-1.91-0.204-3.819,1.193-5.358,1.47  c-1.116,0.204-3.401,2.33-3.977,3.494c-0.741,1.506-0.215,3.294-1.036,4.841c-0.353,0.662-0.573,0.731-1.211,1.21  c-0.543,0.406-1.546,0.773-2.42,1.384c-0.04-2.713-0.538-5.498-0.173-8.471c0.093-0.764,0.445-1.897,0.866-2.94  c0.177-0.443,0.458-0.725,0.69-1.209c0.463-0.974,0.691-1.57,1.381-2.42c0.843-1.032,1.882-1.897,3.113-2.748  c0.06-0.042,0.635-0.667,0.69-0.691c0.088-0.04,1.549-0.11,1.902-0.309c1.734-0.985,3.841-2.3,6.569-2.611  c0.861-0.099,1.732-0.318,2.593-0.173c0.666,0.113,1.409,0.693,2.072,1.037C48.789,42.243,49.492,42.487,50.062,42.956z"/>
<text x="0.0" y="117.5" font-size="5.0" font-weight="bold" font-family="Helvetica Neue, Helvetica, Arial-Unicode, Arial, Sans-serif" fill="#000000">Created by Riccardo Greg</text><text x="0.0" y="122.5" font-size="5.0" font-weight="bold" font-family="Helvetica Neue, Helvetica, Arial-Unicode, Arial, Sans-serif" fill="#000000">from the Noun Project</text></svg>